# File created by Blade
# Date/Time:  Fri Jan 16 19:49:56 2015
# Frame Rate: 120.000 fps
#------------------------------------------------------
:FULLY-SPECIFIED
:DEGREES
861
root 19.142226 35.412333 -21.088024 -170.099434 -2.448930 -179.650402
Spine -23.136473 -1.793139 -0.108458
Head 10.110327 -1.415962 0.856807
LeftShoulder -12.376944 -40.065844 22.463738
LeftArm 8.075998 9.224246 -2.838123
LeftForeArm 23.815960 -0.000000 -1.059627
LeftHand -6.640296 -0.000000 -3.519176
LeftHandThumb1 -26.253704 0.000000 33.147579
RightShoulder -11.932528 2.562502 -12.923708
RightArm 6.758011 36.003352 3.368727
RightForeArm -42.484915 -0.000000 4.642602
RightHand -4.108901 -0.000000 11.711766
RightHandThumb1 -24.326973 -0.000000 -32.862282
LeftUpLeg -1.447791 4.687316 3.089039
LeftLeg -6.753805 -0.000000 0.000000
LeftFoot -19.684757 25.899985 -13.508866
LeftToeBase 27.173681 -0.000000 -0.000000
RightUpLeg -1.661943 -9.381569 -3.898079
RightLeg -3.368032 -0.000000 0.000000
RightFoot -20.263018 -18.838278 18.362636
RightToeBase 25.879819 -0.000000 -0.000000
862
root 19.152742 35.411357 -21.094551 -170.173916 -2.367900 -179.634310
Spine -23.011531 -1.687017 -0.100274
Head 10.066597 -1.377292 0.809467
LeftShoulder -12.372617 -40.059606 22.442590
LeftArm 7.970606 9.108815 -2.916821
LeftForeArm 23.801363 -0.000000 -1.114949
LeftHand -6.663635 0.000000 -3.649785
LeftHandThumb1 -26.253704 0.000000 33.147579
RightShoulder -11.897179 2.618978 -12.967220
RightArm 6.740263 36.141317 3.487912
RightForeArm -42.487074 -0.000000 4.612377
RightHand -4.114070 -0.000000 11.723645
RightHandThumb1 -24.326973 -0.000000 -32.862282
LeftUpLeg -1.355483 4.751496 3.116250
LeftLeg -6.745629 -0.000000 0.000000
LeftFoot -19.710002 25.928759 -13.515479
LeftToeBase 27.178642 -0.000000 -0.000000
RightUpLeg -1.599596 -9.249792 -3.882753
RightLeg -3.360708 -0.000000 0.000000
RightFoot -20.269021 -18.921945 18.295945
RightToeBase 25.837085 -0.000000 -0.000000
863
root 19.163312 35.409818 -21.101020 -170.250742 -2.306685 -179.622485
Spine -22.893310 -1.604766 -0.090184
Head 10.039283 -1.367231 0.760349
LeftShoulder -12.360462 -40.062573 22.414576
LeftArm 7.875172 9.006178 -2.988101
LeftForeArm 23.754269 -0.000000 -1.153984
LeftHand -6.755988 -0.000000 -3.761956
LeftHandThumb1 -26.253704 0.000000 33.147579
RightShoulder -11.847234 2.625726 -12.980686
RightArm 6.742249 36.328968 3.581347
RightForeArm -42.489997 -0.000000 4.580709
RightHand -4.171959 -0.000000 11.758648
RightHandThumb1 -24.326973 -0.000000 -32.862282
LeftUpLeg -1.263709 4.792739 3.144205
LeftLeg -6.735533 -0.000000 0.000000
LeftFoot -19.731806 25.951784 -13.513928
LeftToeBase 27.169632 -0.000000 -0.000000
RightUpLeg -1.527533 -9.160278 -3.864650
RightLeg -3.359647 -0.000000 0.000000
RightFoot -20.301214 -19.030170 18.239707
RightToeBase 25.708304 -0.000000 -0.000000
864
root 19.173105 35.408141 -21.107087 -170.332887 -2.265509 -179.616304
Spine -22.764008 -1.559037 -0.077312
Head 10.012257 -1.312825 0.738262
LeftShoulder -12.372753 -40.092690 22.421048
LeftArm 7.764752 8.890019 -3.069333
LeftForeArm 23.783599 -0.000000 -1.171689
LeftHand -6.784919 -0.000000 -3.886957
LeftHandThumb1 -26.253704 0.000000 33.147579
RightShoulder -11.809717 2.609262 -12.990805
RightArm 6.781579 36.465462 3.693871
RightForeArm -42.433798 -0.000000 4.531910
RightHand -4.130312 -0.000000 11.814511
RightHandThumb1 -24.326973 -0.000000 -32.862282
LeftUpLeg -1.173728 4.857521 3.165079
LeftLeg -6.722474 -0.000000 0.000000
LeftFoot -19.746659 25.934958 -13.510511
LeftToeBase 27.220486 -0.000000 -0.000000
RightUpLeg -1.450208 -9.113614 -3.852197
RightLeg -3.351052 -0.000000 0.000000
RightFoot -20.336001 -19.074322 18.186051
RightToeBase 25.675712 -0.000000 -0.000000
865
root 19.182936 35.406293 -21.113100 -170.406664 -2.233800 -179.617773
Spine -22.655338 -1.543289 -0.060493
Head 10.020564 -1.227442 0.715917
LeftShoulder -12.385548 -40.022420 22.385000
LeftArm 7.714159 8.708859 -3.120868
LeftForeArm 23.661859 0.000000 -1.230674
LeftHand -6.796054 -0.000000 -3.938496
LeftHandThumb1 -26.253704 0.000000 33.147579
RightShoulder -11.749085 2.558412 -12.999363
RightArm 6.862606 36.531714 3.819602
RightForeArm -42.287886 -0.000000 4.472605
RightHand -4.178511 0.000000 11.838007
RightHandThumb1 -24.326973 -0.000000 -32.862282
LeftUpLeg -1.090304 4.913739 3.179707
LeftLeg -6.713878 -0.000000 0.000000
LeftFoot -19.761271 25.918558 -13.504410
LeftToeBase 27.253418 -0.000000 -0.000000
RightUpLeg -1.367895 -9.068751 -3.847817
RightLeg -3.361804 -0.000000 0.000000
RightFoot -20.365469 -19.127932 18.124090
RightToeBase 25.716365 -0.000000 -0.000000
866
root 19.191862 35.403971 -21.118729 -170.470458 -2.214706 -179.640594
Spine -22.559325 -1.546540 -0.070120
Head 10.028096 -1.126132 0.723735
LeftShoulder -12.384611 -39.997741 22.367277
LeftArm 7.638552 8.605407 -3.166792
LeftForeArm 23.515388 -0.000000 -1.257123
LeftHand -6.853487 -0.000000 -3.958813
LeftHandThumb1 -26.253704 0.000000 33.147579
RightShoulder -11.658271 2.575539 -13.005306
RightArm 6.891562 36.539128 3.889636
RightForeArm -42.158197 -0.000000 4.407976
RightHand -4.143047 -0.000000 11.789241
RightHandThumb1 -24.326973 -0.000000 -32.862282
LeftUpLeg -1.029327 5.021963 3.166159
LeftLeg -6.690345 -0.000000 0.000000
LeftFoot -19.754105 25.841508 -13.502753
LeftToeBase 27.223111 -0.000000 -0.000000
RightUpLeg -1.284338 -9.036827 -3.867422
RightLeg -3.388500 -0.000000 0.000000
RightFoot -20.405703 -19.159313 18.078166
RightToeBase 25.802667 -0.000000 -0.000000
